<svg xmlns="http://www.w3.org/2000/svg" width="463" height="153" viewBox="0 0 463 153" version="1.1" fill="currentColor"><path d="M 421.500 1.041 C 400.322 1.643, 398.623 2.087, 393.591 8.341 L 390.500 12.181 390.414 38.341 L 390.329 64.500 390.914 39 C 391.531 12.129, 391.628 11.588, 396.664 6.808 C 400.786 2.896, 406.238 2.052, 427.562 2.024 L 446.624 2 450.760 3.998 C 453.034 5.097, 456.156 7.649, 457.698 9.669 L 460.500 13.342 460.778 60.709 C 461.170 127.398, 462.508 125, 424.901 125 L 406.166 125 401.769 123.115 C 396.502 120.858, 392.273 116.137, 391.559 111.721 C 391.273 109.949, 390.867 107.375, 390.656 106 C 390.445 104.625, 390.211 105.710, 390.136 108.412 C 389.979 114.069, 393.320 120.851, 397.167 122.686 C 404.012 125.950, 406.113 126.167, 427.664 125.836 C 452.388 125.456, 453.540 125.169, 458.457 118.165 L 461.500 113.830 461.796 65.665 C 462.221 -3.393, 464.227 -0.175, 421.500 1.041 M 8.791 4.021 C 6.775 5.683, 4.352 8.495, 3.406 10.271 L 1.686 13.500 1.231 69.750 L 0.776 126 14.864 126 L 28.952 126 29.226 109.250 L 29.500 92.500 36.500 92.500 L 43.500 92.500 44 109 L 44.500 125.500 59.275 125.777 L 74.049 126.054 73.775 70.777 L 73.500 15.500 71.130 10.687 C 69.634 7.647, 67.338 4.976, 64.900 3.437 L 61.040 1 36.748 1 L 12.456 1 8.791 4.021 M 86 63.500 L 86 126 120.883 126 L 155.767 126 156.370 123.750 C 156.701 122.513, 156.979 103.823, 156.986 82.219 L 157 42.937 155.367 42.311 C 153.594 41.630, 142.681 47.100, 139.711 50.158 C 138.727 51.171, 137.265 52, 136.461 52 C 135.657 52, 135 52.477, 135 53.059 C 135 53.641, 134.531 53.828, 133.957 53.473 C 133.383 53.119, 131.358 54.015, 129.457 55.465 L 126 58.102 126 77.222 L 126 96.343 124.253 98.273 L 122.505 100.204 125.003 99.852 L 127.500 99.500 127.770 79.387 L 128.041 59.273 129.770 57.738 C 130.722 56.894, 134.200 54.766, 137.500 53.010 C 140.800 51.255, 145.525 48.541, 148 46.980 C 150.475 45.420, 153.075 43.998, 153.777 43.821 C 154.940 43.529, 155.288 65.429, 155.016 121.750 L 155 125 121 125 L 87 125 87 64 C 87 30.450, 87.338 2.975, 87.750 2.944 C 88.848 2.863, 109.195 2.852, 111.250 2.932 L 113 3 113 50.300 C 113 97.646, 113.159 100, 116.355 100 C 116.880 100, 116.565 99.177, 115.655 98.171 L 114 96.343 114 48.671 L 114 1 100 1 L 86 1 86 63.500 M 158 14.500 L 158 28 161.750 27.882 L 165.500 27.763 162.670 27.132 L 159.841 26.500 159.812 15.192 C 159.795 8.973, 159.965 3.702, 160.188 3.478 C 160.505 3.162, 220.352 2.668, 225.750 2.938 C 226.677 2.984, 227 6.100, 227 15 L 227 27 218.107 27 C 211.125 27, 209.090 27.322, 208.638 28.500 C 208.322 29.325, 208.499 30, 209.031 30 C 209.564 30, 210 29.550, 210 29 C 210 28.407, 213.667 28, 219 28 L 228 28 228 14.500 L 228 1 193 1 L 158 1 158 14.500 M 234 63.516 L 234 126.031 262.250 125.766 L 290.500 125.500 290.500 113.500 L 290.500 101.500 279 101.229 C 269.637 101.008, 267.268 100.647, 266.250 99.288 C 265.270 97.978, 265.003 97.929, 265.015 99.059 C 265.039 101.264, 266.555 103.176, 268.106 102.958 C 268.873 102.851, 274.113 102.816, 279.750 102.882 L 290 103 290 114 L 290 125 262.500 125 L 235 125 235 64 L 235 3 237.250 2.943 C 239.508 2.885, 284.968 2.908, 288.250 2.968 L 290 3 290 14 L 290 25 278.107 25 C 268.185 25, 266.113 25.262, 265.607 26.582 C 264.671 29.022, 264.945 29.699, 266.080 27.750 L 267.099 26 279.050 26 L 291 26 291 13.500 L 291 1 262.500 1 L 234 1 234 63.516 M 312.922 3.274 C 310.995 4.573, 308.357 7.895, 306.771 11.024 L 303.993 16.500 304.247 64.287 L 304.500 112.074 306 113.022 C 306.825 113.543, 307.151 113.976, 306.724 113.985 C 304.668 114.025, 309.648 120.455, 313.751 123.057 L 318.392 126 341.542 126 C 366.861 126, 367.946 125.796, 373.526 119.975 L 376.500 116.873 376.802 93.936 L 377.105 71 374.802 71.015 C 371.509 71.037, 364.557 73.608, 365.769 74.357 C 366.329 74.703, 368.396 74.315, 370.362 73.493 C 372.327 72.672, 374.400 72, 374.968 72 C 375.644 72, 376 79.185, 376 92.852 L 376 113.704 373.750 117.028 C 372.512 118.856, 369.517 121.397, 367.093 122.676 L 362.685 125 341.803 125 L 320.920 125 317.210 123.023 C 306.221 117.166, 306.220 117.158, 306.380 62 C 306.451 37.525, 306.827 16.448, 307.214 15.162 C 308.514 10.848, 311.581 6.525, 314.952 4.253 L 318.296 2 342.051 2 L 365.807 2 370.653 6.386 L 375.500 10.772 375.803 33.386 C 375.970 45.824, 375.735 56, 375.280 56 C 374.826 56, 370.915 54.637, 366.589 52.971 C 362.263 51.306, 358.497 50.170, 358.219 50.448 C 357.941 50.726, 358.566 51.268, 359.607 51.654 C 360.648 52.039, 361.725 52.650, 362 53.012 C 362.518 53.694, 369.437 55.777, 374.250 56.700 L 377 57.227 377 33.971 L 377 10.714 372.143 5.857 L 367.286 1 341.791 1 L 316.296 1 312.922 3.274 M 11.823 3.778 C 9.143 5.546, 6.593 8.565, 4.250 12.744 C 3.292 14.452, 3 27.831, 3 69.986 L 3 125 15.500 125 L 28 125 28 108.519 L 28 92.038 30.271 91.468 C 31.520 91.155, 35.662 91.034, 39.476 91.199 L 46.411 91.500 46.126 105.509 C 45.969 113.214, 46.150 120.751, 46.529 122.259 L 47.217 125 60.125 125 L 73.034 125 72.749 71.250 C 72.593 41.688, 72.161 16.488, 71.790 15.252 C 70.484 10.898, 67.686 7.243, 63.664 4.636 L 59.600 2 37.050 2.007 L 14.500 2.013 11.823 3.778 M 32.016 27.213 L 29.955 29.426 30.227 46.463 L 30.500 63.500 37.500 63.500 L 44.500 63.500 44.774 46.750 C 44.953 35.808, 44.693 30, 44.024 30 C 43.367 30, 43 35.923, 43 46.550 L 43 63.100 37.250 62.800 L 31.500 62.500 31.224 46.592 L 30.948 30.685 33.148 28.342 C 35.657 25.672, 39.170 25.295, 41 27.500 C 41.685 28.325, 42.710 29, 43.277 29 C 43.845 29, 43.495 28.100, 42.500 27 C 40.010 24.248, 34.678 24.356, 32.016 27.213 M 337.189 27.039 L 335 29.078 335 63.384 L 335 97.690 336.829 99.345 C 343.116 105.035, 348 100.570, 348 89.133 L 348 81.135 350 80.500 C 352.052 79.849, 352.792 78, 351 78 C 350.450 78, 350 78.450, 350 79 C 350 79.550, 349.438 79.888, 348.750 79.750 C 347.847 79.569, 347.418 81.848, 347.206 87.970 C 346.818 99.135, 342.602 103.638, 337.655 98.171 L 336 96.343 336 63.346 L 336 30.349 338.314 28.174 C 343.856 22.968, 347 26.622, 347 38.270 C 347 43.291, 347.445 47.157, 348.067 47.541 C 349.664 48.528, 350.544 47.144, 349.183 45.783 C 348.466 45.066, 348 41.393, 348 36.455 C 348 25.511, 343.260 21.383, 337.189 27.039 M 420.917 27.083 C 418.101 29.899, 419.403 30.909, 422.318 28.171 C 425.273 25.395, 427.116 25.430, 429.826 28.314 L 432 30.629 432 63.180 L 432 95.730 429.927 98.365 C 427.329 101.669, 426.301 101.663, 422.815 98.323 C 421.278 96.850, 419.679 95.989, 419.260 96.408 C 418.093 97.578, 423.805 102, 426.483 102 C 427.854 102, 429.729 100.888, 430.927 99.365 L 433 96.730 433 63.054 L 433 29.377 430.961 27.189 C 428.352 24.388, 423.661 24.339, 420.917 27.083 M 171 27.886 L 176.500 28.500 177 77 L 177.500 125.500 193.120 125.775 L 208.740 126.049 209.370 122.900 C 210.105 119.223, 210.220 110.446, 209.524 111.142 C 209.116 111.551, 208.446 117.249, 208.101 123.250 L 208 125 193.510 125 L 179.019 125 178.760 76.250 L 178.500 27.500 172 27.386 L 165.500 27.272 171 27.886 M 265.209 39 C 264.972 51.645, 264.522 51.214, 278.133 51.370 L 289.500 51.500 289.500 63 L 289.500 74.500 278.038 74.785 C 266.950 75.060, 265 75.618, 265.047 78.500 C 265.056 79.050, 265.650 78.728, 266.367 77.784 C 267.439 76.373, 269.695 76.018, 279.085 75.784 L 290.500 75.500 290.500 63 L 290.500 50.500 278.500 50 L 266.500 49.500 265.944 39.500 L 265.387 29.500 265.209 39 M 419.442 61 C 419.442 77.225, 419.580 83.862, 419.748 75.750 C 419.916 67.637, 419.916 54.362, 419.748 46.250 C 419.580 38.137, 419.442 44.775, 419.442 61 M 208.349 42 C 208.349 46.675, 208.522 48.587, 208.732 46.250 C 208.943 43.912, 208.943 40.087, 208.732 37.750 C 208.522 35.412, 208.349 37.325, 208.349 42 M 355.020 49.524 C 355.716 50.362, 356.491 50.842, 356.743 50.591 C 357.436 49.897, 356.027 48, 354.819 48 C 354.155 48, 354.231 48.574, 355.020 49.524 M 208.158 61 C 208.158 62.375, 208.385 62.938, 208.662 62.250 C 208.940 61.563, 208.940 60.438, 208.662 59.750 C 208.385 59.063, 208.158 59.625, 208.158 61 M 209.415 88 C 209.415 98.175, 209.564 102.337, 209.745 97.250 C 209.927 92.162, 209.927 83.837, 209.745 78.750 C 209.564 73.662, 209.415 77.825, 209.415 88 M 390.370 81 C 390.370 86.775, 390.535 89.138, 390.737 86.250 C 390.939 83.362, 390.939 78.638, 390.737 75.750 C 390.535 72.862, 390.370 75.225, 390.370 81 M 360.682 75.387 C 360.308 76.360, 360.724 76.623, 362.075 76.270 C 364.289 75.691, 364.685 74, 362.607 74 C 361.841 74, 360.975 74.624, 360.682 75.387 M 355.244 76.664 C 354.553 76.943, 354.216 77.540, 354.495 77.992 C 355.134 79.025, 359 78.074, 359 76.883 C 359 75.938, 357.292 75.838, 355.244 76.664 M 265.079 91.583 C 265.127 92.748, 265.364 92.985, 265.683 92.188 C 265.972 91.466, 265.936 90.603, 265.604 90.271 C 265.272 89.939, 265.036 90.529, 265.079 91.583 M 2.667 136.667 C 2.300 137.033, 2 140.633, 2 144.667 L 2 152 232 152 L 462 152 462 144 L 462 136 456.250 136.157 L 450.500 136.314 455.500 136.907 L 460.500 137.500 460.500 144 L 460.500 150.500 232 150.500 L 3.500 150.500 3.500 144.045 L 3.500 137.590 6 136.895 L 8.500 136.199 5.917 136.100 C 4.496 136.045, 3.033 136.300, 2.667 136.667 M 35.768 136.725 C 37.565 136.947, 40.265 136.943, 41.768 136.715 C 43.271 136.486, 41.800 136.304, 38.500 136.310 C 35.200 136.315, 33.971 136.502, 35.768 136.725 M 381.762 136.707 C 383.006 136.946, 384.806 136.937, 385.762 136.687 C 386.718 136.437, 385.700 136.241, 383.500 136.252 C 381.300 136.263, 380.518 136.468, 381.762 136.707" stroke="none" fill="#a4a4a8" fill-rule="evenodd"/><path d="M 405.189 0.850 C 403.918 1.207, 410.218 1.372, 419.189 1.216 C 441.477 0.827, 444.050 0.310, 424 0.250 C 414.925 0.222, 406.460 0.492, 405.189 0.850 M 11.823 3.778 C 9.143 5.546, 6.593 8.565, 4.250 12.744 C 3.292 14.452, 3 27.831, 3 69.986 L 3 125 15.500 125 L 28 125 28 108.519 L 28 92.038 30.271 91.468 C 31.520 91.155, 35.662 91.034, 39.476 91.199 L 46.411 91.500 46.126 105.509 C 45.969 113.214, 46.150 120.751, 46.529 122.259 L 47.217 125 60.125 125 L 73.034 125 72.749 71.250 C 72.593 41.688, 72.161 16.488, 71.790 15.252 C 70.484 10.898, 67.686 7.243, 63.664 4.636 L 59.600 2 37.050 2.007 L 14.500 2.013 11.823 3.778 M 88 2.833 C 87.348 3.051, 87 24.346, 87 64.083 L 87 125 121 125 L 155 125 155.016 121.750 C 155.288 65.429, 154.940 43.529, 153.777 43.821 C 153.075 43.998, 150.475 45.420, 148 46.980 C 145.525 48.541, 140.800 51.255, 137.500 53.010 C 134.200 54.766, 130.722 56.894, 129.770 57.738 L 128.041 59.273 127.770 79.387 L 127.500 99.500 121.500 99.555 C 112.296 99.640, 113 103.714, 113 50.378 L 113 3 111.250 2.935 C 103.031 2.627, 88.805 2.565, 88 2.833 M 180.750 2.770 L 160 3.041 159.932 4.770 C 159.047 27.420, 158.908 27.098, 169.652 27.318 L 178.500 27.500 178.760 76.250 L 179.019 125 193.393 125 L 207.767 125 208.359 122.250 C 208.685 120.737, 208.823 99.217, 208.667 74.427 C 208.329 20.965, 207.131 27, 218.083 27 L 227 27 227 15 C 227 8.400, 226.662 2.976, 226.250 2.946 C 222.111 2.650, 197.368 2.554, 180.750 2.770 M 237.250 2.820 L 235 3.139 235 64.070 L 235 125 262.500 125 L 290 125 290 114 L 290 103 279.750 102.882 C 274.113 102.816, 268.873 102.851, 268.106 102.958 C 265.716 103.293, 264.506 88.254, 265.919 75.782 C 265.963 75.387, 271.288 74.937, 277.750 74.782 L 289.500 74.500 289.500 63 L 289.500 51.500 278.133 51.370 C 264.419 51.213, 264.938 51.745, 265.113 38.010 C 265.293 23.926, 264.219 25, 278.107 25 L 290 25 290 14 L 290 3 288.250 2.970 C 270.921 2.672, 238.952 2.578, 237.250 2.820 M 314.952 4.253 C 311.581 6.525, 308.514 10.848, 307.214 15.162 C 306.827 16.448, 306.451 37.525, 306.380 62 C 306.220 117.158, 306.221 117.166, 317.210 123.023 L 320.920 125 341.803 125 L 362.685 125 367.093 122.676 C 369.517 121.397, 372.512 118.856, 373.750 117.028 L 376 113.704 376 92.852 C 376 79.185, 375.644 72, 374.968 72 C 374.400 72, 372.364 72.657, 370.443 73.459 C 368.523 74.262, 366.287 74.664, 365.475 74.352 C 364.664 74.041, 364 74.337, 364 75.010 C 364 75.741, 363.195 76.023, 361.998 75.710 C 360.785 75.393, 359.650 75.802, 359.121 76.749 C 358.598 77.683, 356.990 78.276, 355.123 78.223 C 353.405 78.174, 352 78.602, 352 79.174 C 352 79.746, 351.302 79.946, 350.448 79.618 C 349.558 79.277, 349.157 79.445, 349.507 80.011 C 349.843 80.555, 349.641 81, 349.059 81 C 348.401 81, 348 84.056, 348 89.066 C 348 100.584, 342.426 105.548, 336.655 99.171 L 335 97.343 335 63.210 L 335 29.078 337.189 27.039 C 343.248 21.394, 347.991 25.571, 348.022 36.579 C 348.046 45.106, 349.132 47.553, 354 50.047 L 356.500 51.327 355.128 49.664 C 354.373 48.749, 354.205 48, 354.756 48 C 355.306 48, 356.507 49.013, 357.424 50.250 C 358.342 51.488, 358.820 51.938, 358.487 51.250 C 357.667 49.556, 357.787 49.582, 366.663 53 C 370.948 54.650, 374.826 56, 375.280 56 C 375.735 56, 375.970 45.824, 375.803 33.386 L 375.500 10.772 370.653 6.386 L 365.807 2 342.051 2 L 318.296 2 314.952 4.253 M 403.327 3.151 C 391.417 5.824, 391.012 7.864, 390.828 66 C 390.663 118.362, 390.645 118.268, 401.833 123.121 L 406.166 125 424.901 125 C 462.508 125, 461.170 127.398, 460.778 60.709 L 460.500 13.342 457.698 9.669 C 456.156 7.649, 453.034 5.097, 450.760 3.998 L 446.624 2 427.062 2.107 C 416.303 2.166, 405.622 2.636, 403.327 3.151 M 32.016 27.213 L 29.955 29.426 30.227 46.463 L 30.500 63.500 37.500 63.500 L 44.500 63.500 44.774 46.750 C 44.978 34.307, 44.742 30, 43.858 30 C 43.203 30, 42.968 29.699, 43.336 29.331 C 43.703 28.963, 43.259 27.838, 42.347 26.831 C 40.008 24.246, 34.594 24.446, 32.016 27.213 M 421.017 26.983 L 419.033 28.967 419.124 63.496 L 419.216 98.025 421.743 100.012 C 425.211 102.741, 428.452 102.512, 430.927 99.365 L 433 96.730 433 63.054 L 433 29.377 430.961 27.189 C 428.395 24.434, 423.664 24.336, 421.017 26.983 M 137 51 C 136.175 51.533, 135.950 51.969, 136.500 51.969 C 137.050 51.969, 138.175 51.533, 139 51 C 139.825 50.467, 140.050 50.031, 139.500 50.031 C 138.950 50.031, 137.825 50.467, 137 51 M 6 136.914 L 3.500 137.590 3.500 144.045 L 3.500 150.500 232 150.500 L 460.500 150.500 460.500 144 L 460.500 137.500 455 136.854 C 447.650 135.992, 9.197 136.050, 6 136.914 M 123.750 152.743 C 127.737 152.932, 134.262 152.932, 138.250 152.743 C 142.238 152.553, 138.975 152.397, 131 152.397 C 123.025 152.397, 119.763 152.553, 123.750 152.743" stroke="none" fill="#e2e6e8" fill-rule="evenodd"/></svg>